<svg width="50.000000" height="50.000000" viewBox="0 0 50 50" fill="none" xmlns="http://www.w3.org/2000/svg"
     xmlns:xlink="http://www.w3.org/1999/xlink">
    <desc>
        Created with Pixso.
    </desc>
    <defs>
        <clipPath id="clip20_1838">
            <rect width="50.000000" height="50.000000" fill="white" fill-opacity="0"/>
        </clipPath>
    </defs>
    <rect width="50.000000" height="50.000000" fill="#FFFFFF" fill-opacity="0"/>

    <!--	skils-->
    <g id="code">

        <path d="M18.31 42.06L27.26 6.68L31.43 7.87L22.48 43.31L18.31 42.06Z" fill="#7572D5" fill-opacity="1.000000"
              fill-rule="evenodd"/>
        <path d="M13.5 12.68L16.56 15.92L7.99 25L16.56 34.07L13.5 37.31L1.87 25L13.5 12.68Z" fill="#7572D5"
              fill-opacity="1.000000" fill-rule="evenodd"/>
        <path d="M36.49 12.68L33.43 15.92L42 25L33.43 34.07L36.49 37.31L48.12 25L36.49 12.68Z" fill="#7572D5"
              fill-opacity="1.000000" fill-rule="evenodd"/>
    </g>


    <g id="css">
        <path d="M38.05 10.84L12.94 10.83L13.35 15.75L32.63 15.75L32.15 20.85L19.5 20.85L19.96 25.67L31.73 25.67L31.03 32.28L25.49 33.78L19.86 32.27L19.5 28.31L14.53 28.31L15.08 35.54L25.49 38.73L35.73 35.86L38.04 10.84L38.05 10.84ZM5.49 2.56L45.49 2.56L41.86 42.99L25.45 47.56L9.13 42.99L5.49 2.56Z"
              fill="#7572D5" fill-opacity="1.000000" fill-rule="nonzero"/>

    </g>


    <g id="react">
        <path id="Vector"
              d="M45.62 20.41C45.62 17.49 42.5 14.78 37.29 12.91L36.35 12.6L36.35 12.18C37.5 6.45 36.66 2.18 34.06 0.62C31.45 -0.95 27.6 0.51 23.43 4.16L22.81 4.78L22.6 4.57L22.39 4.57C18.12 0.62 13.95 -0.74 11.35 0.72C8.75 2.18 8.02 6.24 9.06 11.55C9.17 11.89 9.24 12.24 9.27 12.6L8.12 13.01C3.02 14.78 0 17.49 0 20.41C0 23.32 3.33 26.24 8.54 28.12L9.27 28.32C9.14 28.69 9.07 29.08 9.06 29.47C8.02 34.68 8.95 38.64 11.35 40.1C13.75 41.55 18.12 40.2 22.29 36.55L22.91 36.03L23.75 36.87C26.66 39.37 29.58 40.72 31.87 40.72C32.68 40.74 33.47 40.52 34.16 40.1C36.77 38.64 37.7 34.37 36.56 28.95L36.56 28.74C36.51 28.57 36.48 28.4 36.45 28.22L36.77 28.22C42.29 26.24 45.62 23.43 45.62 20.41ZM42.6 20.41C42.6 21.66 40.31 23.85 35.83 25.3L35.62 25.3C35.07 23.63 34.41 21.99 33.64 20.41C34.37 18.74 35 17.07 35.52 15.51L36.35 15.72C40.52 17.18 42.6 19.16 42.6 20.41ZM25.72 34.57L24.89 33.95C26.08 32.63 27.2 31.24 28.22 29.78L33.54 28.95C33.64 29.16 33.64 29.37 33.75 29.47C34.12 31.36 34.19 33.29 33.95 35.2C33.81 36.11 33.37 36.95 32.7 37.6C31.66 38.22 28.85 37.39 25.72 34.57ZM24.37 29.99L22.91 31.87L21.25 29.99L24.37 29.99ZM10.1 15.41C10.62 17.13 11.28 18.8 12.08 20.41C11.28 22.05 10.62 23.76 10.1 25.51L9.47 25.3C7.65 24.73 5.95 23.81 4.47 22.6C4.09 22.35 3.76 22.03 3.51 21.66C3.26 21.28 3.09 20.85 3.02 20.41C3.02 19.16 5.1 17.18 9.06 15.82L10.1 15.41ZM21.25 10.82L22.81 9.05L24.37 10.82L21.25 10.82ZM32.7 3.22C33.85 3.85 34.47 6.97 33.54 11.55C33.54 11.61 33.53 11.67 33.52 11.72C33.5 11.77 33.47 11.82 33.43 11.87L28.22 11.03C27.2 9.58 26.08 8.19 24.89 6.87L25.52 6.35C28.85 3.43 31.56 2.6 32.7 3.22ZM15.31 14.26L14.47 15.62L13.75 16.97C13.43 16.24 13.22 15.51 12.91 14.68L15.31 14.26ZM12.91 26.14C13.22 25.41 13.43 24.68 13.75 23.85L14.47 25.2L15.31 26.55L12.91 26.14ZM30.31 20.41C29.78 21.55 29.19 22.66 28.54 23.74C27.91 24.89 27.18 25.93 26.56 26.97L19.06 26.97C18.33 25.82 17.6 24.78 17.08 23.74C16.42 22.67 15.83 21.55 15.31 20.41C15.81 19.25 16.4 18.14 17.08 17.07C17.68 16 18.34 14.95 19.06 13.95C21.55 13.74 24.06 13.74 26.56 13.95C27.29 14.99 27.91 16.03 28.54 17.07C29.21 18.14 29.8 19.25 30.31 20.41ZM31.14 15.62L30.31 14.26L32.7 14.78C32.47 15.53 32.19 16.26 31.87 16.97L31.14 15.62ZM30.31 26.55L31.14 25.2L31.87 23.74L32.81 26.14L30.31 26.55ZM20.62 6.76L20.72 6.76L17.39 10.93L12.18 11.76C12.08 11.45 12.08 11.24 11.97 10.93C11.14 6.66 11.77 3.74 12.81 3.22C13.08 3.04 13.42 2.96 13.75 3.01C15.2 3.01 17.7 4.05 20.52 6.55L20.62 6.76ZM11.97 29.99C11.99 29.67 12.06 29.35 12.18 29.05L17.5 29.78C18.5 31.26 19.61 32.65 20.83 33.95L20.62 34.16L20.41 34.37C18.99 35.68 17.33 36.71 15.52 37.39C15.12 37.6 14.68 37.72 14.24 37.76C13.79 37.79 13.34 37.74 12.91 37.6C11.77 36.97 11.14 34.16 11.97 29.99Z"
              fill="#7572D5" fill-opacity="1.000000" fill-rule="nonzero"/>

    </g>

    <g id="styled-components">
        <path d="M37.25 6.25L36.98 7.64C36.57 10.3 36.72 11.06 37.86 12.04L38.97 12.95L37.82 18.03C37.14 21.05 36.3 23.59 35.77 24.43C35.31 25.15 34.77 26.21 34.66 26.77C34.47 27.45 33.82 28.14 32.83 28.74C31.95 29.24 30.23 30.56 29.02 31.62C28.04 32.49 27.37 33.03 27.01 33.26L25.82 34.19C25.44 34.8 25.22 35.29 25.14 35.66C25.05 36.05 25.1 36.3 25.22 36.49C25.34 36.66 25.55 36.79 25.83 36.87C26.16 36.95 26.5 36.97 26.85 36.95C27.62 36.9 28.38 36.76 29.12 36.55C29.38 36.48 29.57 36.42 29.75 36.36C30.01 36.03 30.63 35.42 31.72 34.35C34.62 31.51 35.73 29.96 34.58 30.38C34.16 30.53 34.35 30.15 35.08 29.39C36.61 27.91 37.48 25.68 39.31 18.67C40.76 13.14 40.76 13.06 41.83 13.06C42.33 13.06 43.75 13.15 43.75 13.15L43.75 6.25L40.49 6.25L37.25 6.25ZM24.42 18.08C23.36 18.07 21.1 19.66 14.33 25.16C14.03 25.85 14.01 26.32 14.14 26.63C14.23 26.84 14.39 26.99 14.61 27.1C14.82 27.2 15.1 27.27 15.41 27.29C16.03 27.35 16.76 27.25 17.35 27.14L17.74 27.05C17.88 26.87 18.06 26.72 18.26 26.62C18.68 26.39 20.43 24.81 22.19 23.1C25.28 19.99 26 18.59 24.74 18.14C24.64 18.1 24.53 18.08 24.42 18.08ZM32.33 20.23C31.4 20.26 29.74 21.33 26.88 23.59C25.44 24.75 24.54 25.37 24.05 25.5L22.16 26.98C21.45 28.27 21.35 29.07 21.53 29.51C21.58 29.62 21.65 29.72 21.73 29.8C21.82 29.88 21.92 29.95 22.03 29.99C22.31 30.1 22.6 30.15 22.9 30.15C23.6 30.14 24.31 30.04 24.99 29.85C25.34 29.75 25.69 29.64 26.03 29.52L26.14 29.47L26.33 29.37C26.69 28.91 27.52 28.04 28.56 27.04C31.84 23.9 33.51 21.66 33.17 20.83C33.02 20.42 32.75 20.22 32.33 20.23ZM23.59 24.1C23.33 24.13 22.73 24.59 21.65 25.52C20.1 26.89 18.4 27.68 17.81 27.33C17.67 27.36 17.54 27.39 17.4 27.41C16.8 27.53 16.06 27.63 15.39 27.58C15.07 27.56 14.77 27.48 14.48 27.35C14.21 27.23 13.99 27.01 13.87 26.74C13.74 26.42 13.74 26.02 13.89 25.51L11.55 27.42L6.25 31.77L6.25 38.84L23.62 25.25C23.62 25.1 23.64 24.95 23.68 24.81C23.81 24.33 23.8 24.08 23.59 24.1L23.59 24.1ZM31.07 26.39C30.81 26.39 30.37 26.76 29.66 27.5C28.71 28.51 27.21 29.49 26.41 29.69L26.29 29.76C26.16 29.81 26.02 29.86 25.89 29.91C25.67 29.98 25.39 30.06 25.07 30.15C24.42 30.33 23.61 30.49 22.89 30.47C22.55 30.47 22.22 30.4 21.9 30.27C21.6 30.15 21.37 29.92 21.24 29.63C21.03 29.13 21.11 28.44 21.57 27.44L6.25 39.43L6.25 43.75L12.98 43.75L27.26 32.61C27.63 32.2 28.19 31.64 28.94 30.94C30.96 29.08 31.42 28.44 31.42 27.49C31.42 26.76 31.33 26.38 31.07 26.38L31.07 26.39ZM34.47 33.37L33.25 34.58C32.56 35.22 31.34 36.02 30.5 36.36L30.34 36.43L30.33 36.45L30.29 36.48C30.26 36.51 30.24 36.51 30.22 36.52C29.89 36.65 29.55 36.76 29.2 36.85C28.44 37.08 27.65 37.21 26.86 37.27C26.48 37.29 26.11 37.26 25.74 37.17C25.43 37.1 25.15 36.92 24.96 36.65C24.78 36.39 24.73 36.03 24.83 35.6C24.91 35.29 25.02 34.99 25.17 34.7L13.65 43.75L28.98 43.75L30.81 41.66C33.32 38.75 34.47 36.66 34.47 34.88L34.47 33.37Z"
              fill="#7572D5" fill-opacity="1.000000" fill-rule="nonzero"/>

    </g>

    <g id="figma">
        <path d="M17.7 4.16C14.25 4.16 11.45 6.96 11.45 10.41C11.45 13.86 14.25 16.66 17.7 16.66L32.29 16.66C35.74 16.66 38.54 13.86 38.54 10.41C38.54 6.96 35.74 4.16 32.29 4.16L17.7 4.16Z"
              fill="#7572D5" fill-opacity="1.000000" fill-rule="nonzero"/>
        <path d="M32.29 18.75C28.83 18.75 26.04 21.54 26.04 25C26.04 28.45 28.83 31.25 32.29 31.25C35.74 31.25 38.54 28.45 38.54 25C38.54 21.54 35.74 18.75 32.29 18.75Z"
              fill="#7572D5" fill-opacity="1.000000" fill-rule="nonzero"/>
        <path d="M11.45 25C11.45 21.54 14.25 18.75 17.7 18.75L23.95 18.75L23.95 31.25L17.7 31.25C14.25 31.25 11.45 28.45 11.45 25Z"
              fill="#7572D5" fill-opacity="1.000000" fill-rule="nonzero"/>
        <path d="M17.7 33.33C14.25 33.33 11.45 36.13 11.45 39.58C11.45 43.03 14.25 45.83 17.7 45.83C21.16 45.83 23.95 43.03 23.95 39.58L23.95 33.33L17.7 33.33Z"
              fill="#7572D5" fill-opacity="1.000000" fill-rule="nonzero"/>

    </g>

    <g id="typeScript">
        <path d="M5 25L5 45L45 45L45 5L5 5L5 25ZM37.23 23.4C38.25 23.66 39.02 24.11 39.73 24.84C40.1 25.24 40.65 25.95 40.69 26.13C40.7 26.18 38.96 27.34 37.91 28C37.87 28.02 37.72 27.86 37.55 27.61C37.03 26.86 36.49 26.53 35.67 26.48C34.46 26.39 33.68 27.03 33.68 28.09C33.67 28.35 33.73 28.61 33.85 28.84C34.12 29.39 34.62 29.72 36.17 30.39C39.03 31.63 40.26 32.44 41.02 33.59C41.87 34.88 42.06 36.94 41.48 38.47C40.85 40.13 39.28 41.26 37.06 41.64C36.37 41.76 34.75 41.74 34.01 41.61C32.41 41.32 30.88 40.53 29.94 39.48C29.57 39.08 28.86 38.02 28.9 37.94C28.92 37.91 29.08 37.81 29.27 37.71C29.45 37.61 30.12 37.22 30.75 36.85L31.9 36.18L32.15 36.54C32.48 37.05 33.22 37.76 33.66 37.99C34.94 38.66 36.69 38.57 37.55 37.8C37.73 37.65 37.86 37.46 37.95 37.26C38.05 37.05 38.09 36.82 38.08 36.59C38.08 36.13 38.02 35.93 37.78 35.58C37.47 35.14 36.83 34.76 35.03 33.98C32.96 33.09 32.08 32.54 31.26 31.66C30.75 31.08 30.38 30.4 30.16 29.66C30.01 29.1 29.97 27.68 30.09 27.11C30.52 25.12 32.02 23.73 34.2 23.31C34.9 23.18 36.54 23.23 37.23 23.4ZM27.84 25.07L27.85 26.71L22.65 26.71L22.65 41.5L18.96 41.5L18.96 26.71L13.76 26.71L13.76 25.1C13.76 24.21 13.78 23.47 13.8 23.45C13.82 23.43 16.99 23.41 20.83 23.42L27.82 23.44L27.84 25.07Z"
              fill="#7572D5" fill-opacity="1.000000" fill-rule="nonzero"/>

    </g>


    <!--	social-->
    <g id="instagram">
        <path id="Vector"
              d="M13.55 0L3.24 0C1.45 0 0 1.45 0 3.24L0 6.67L0 13.55C0 15.34 1.45 16.79 3.24 16.79L13.55 16.79C15.34 16.79 16.79 15.34 16.79 13.55L16.79 6.67L16.79 3.24C16.79 1.45 15.33 0 13.55 0ZM14.48 1.93L14.85 1.93L14.85 2.3L14.85 4.78L12.01 4.78L12 1.94L14.48 1.93ZM5.99 6.67C6.53 5.93 7.4 5.43 8.39 5.43C9.37 5.43 10.25 5.92 10.78 6.67C11.14 7.15 11.34 7.75 11.34 8.39C11.34 10.02 10.02 11.35 8.38 11.35C6.75 11.35 5.44 10.02 5.44 8.39C5.44 7.75 5.65 7.15 5.99 6.67ZM15.15 13.54C15.15 14.43 14.43 15.15 13.55 15.15L3.24 15.15C2.36 15.15 1.64 14.43 1.64 13.54L1.64 6.67L4.14 6.67C3.93 7.2 3.8 7.78 3.8 8.39C3.8 10.92 5.86 12.98 8.39 12.98C10.93 12.98 12.99 10.92 12.99 8.39C12.99 7.78 12.86 7.2 12.65 6.67L15.15 6.67L15.15 13.54Z"
              fill="#7572D5" fill-opacity="1.000000" fill-rule="nonzero"/>

    </g>

    <g id="linkdean">
        <path id="Vector" d="M9.53 14.88L12.8 14.88L12.8 25.36L9.53 25.36L9.53 14.88Z" fill="#7572D5"
              fill-opacity="1.000000" fill-rule="evenodd"/>
        <path id="Vector"
              d="M11.1 9.94C9.89 9.94 9.09 10.72 9.09 11.75C9.09 12.77 9.86 13.57 11.05 13.57L11.08 13.57C12.31 13.57 13.08 12.76 13.07 11.75C13.04 10.72 12.3 9.94 11.1 9.94Z"
              fill="#7572D5" fill-opacity="1.000000" fill-rule="nonzero"/>
        <path id="Vector"
              d="M21.74 14.78C19.87 14.78 18.69 15.81 18.48 16.53L18.48 14.88L14.8 14.88C14.84 15.75 14.8 25.36 14.8 25.36L18.48 25.36L18.48 19.7C18.48 19.37 18.46 19.06 18.55 18.84C18.8 18.21 19.35 17.55 20.33 17.55C21.6 17.55 22.18 18.52 22.18 19.94L22.18 25.36L25.9 25.36L25.9 19.53C25.9 16.29 24.07 14.78 21.74 14.78Z"
              fill="#7572D5" fill-opacity="1.000000" fill-rule="nonzero"/>

    </g>

    <g id="telegram">
        <path id="Vector"
              d="M25.9 11.76L23.37 23.72C23.17 24.56 22.68 24.77 21.97 24.37L18.1 21.53L16.24 23.32C16.03 23.53 15.86 23.7 15.46 23.7L15.74 19.76L22.9 13.29C23.21 13.02 22.83 12.86 22.42 13.14L13.57 18.71L9.76 17.52C8.93 17.26 8.91 16.69 9.93 16.29L24.83 10.55C25.52 10.29 26.13 10.71 25.9 11.76Z"
              fill="#1F1F20" fill-opacity="1.000000" fill-rule="nonzero"/>

    </g>

    <g id="vk">
        <path id="Vector"
              d="M25.16 20.99C24.8 20.53 24.38 20.13 23.98 19.73C23.84 19.59 23.69 19.45 23.55 19.3C23.14 18.89 23.12 18.73 23.45 18.26C23.67 17.94 23.91 17.61 24.14 17.3C24.35 17.01 24.56 16.72 24.77 16.42L24.81 16.36C25.21 15.8 25.61 15.21 25.83 14.51C25.89 14.32 25.95 14.04 25.81 13.82C25.68 13.59 25.41 13.52 25.23 13.48C25.14 13.47 25.05 13.47 24.96 13.47L22.38 13.46L22.35 13.46C21.96 13.46 21.7 13.65 21.55 14.05C21.41 14.42 21.25 14.82 21.07 15.2C20.71 15.96 20.25 16.83 19.59 17.56L19.56 17.59C19.48 17.67 19.4 17.77 19.33 17.77C19.32 17.77 19.31 17.77 19.3 17.77C19.16 17.71 19.07 17.37 19.07 17.21C19.07 17.21 19.07 17.2 19.07 17.2L19.07 14.11C19.07 14.1 19.07 14.08 19.07 14.07C19 13.57 18.86 13.26 18.31 13.15C18.29 13.14 18.28 13.14 18.26 13.14L15.58 13.14C15.14 13.14 14.9 13.33 14.67 13.6C14.61 13.68 14.48 13.83 14.54 14.02C14.61 14.2 14.82 14.24 14.88 14.26C15.22 14.32 15.41 14.54 15.46 14.91C15.56 15.56 15.57 16.25 15.5 17.08C15.48 17.31 15.44 17.49 15.38 17.65C15.37 17.68 15.31 17.8 15.26 17.8C15.24 17.8 15.2 17.79 15.11 17.73C14.9 17.58 14.75 17.37 14.57 17.11C13.96 16.22 13.46 15.25 13.02 14.12C12.85 13.71 12.55 13.48 12.16 13.47C11.73 13.47 11.34 13.46 10.97 13.46C10.56 13.46 10.19 13.47 9.82 13.48C9.51 13.48 9.29 13.58 9.18 13.77C9.06 13.95 9.07 14.2 9.2 14.5C10.23 16.88 11.17 18.61 12.24 20.11C12.99 21.16 13.74 21.89 14.6 22.4C15.51 22.94 16.53 23.2 17.72 23.2C17.85 23.2 17.99 23.2 18.13 23.19C18.82 23.16 19.08 22.9 19.11 22.2C19.13 21.85 19.16 21.47 19.33 21.16C19.44 20.96 19.54 20.96 19.57 20.96C19.63 20.96 19.71 20.99 19.8 21.04C19.95 21.14 20.08 21.28 20.18 21.4C20.28 21.51 20.38 21.63 20.48 21.74C20.69 21.99 20.91 22.24 21.14 22.48C21.64 23.01 22.19 23.24 22.83 23.19L25.2 23.19C25.2 23.19 25.21 23.19 25.21 23.19C25.45 23.18 25.65 23.04 25.77 22.82C25.92 22.55 25.92 22.2 25.77 21.89C25.59 21.54 25.36 21.24 25.16 20.99Z"
              fill="#7572D5" fill-opacity="1.000000" fill-rule="nonzero"/>

    </g>

    <!--	arrows-->

    <g id="arrows">
        <path id="Vector" d="M6.8 4.28L6.8 15L9.19 15L9.19 4.28L14.31 9.08L16 7.5L8 0L0 7.5L1.68 9.08L6.8 4.28Z"
              fill="#FFFFFF" fill-opacity="1.000000" fill-rule="nonzero"/>

    </g>


    <!--	quote-->

    <g id="qiote">
        <path d="M13.54 20.83C13.07 20.83 12.63 20.9 12.18 20.96C12.33 20.48 12.47 19.99 12.71 19.55C12.95 18.91 13.32 18.35 13.69 17.79C14 17.18 14.54 16.77 14.94 16.25C15.36 15.75 15.93 15.41 16.38 14.99C16.83 14.56 17.41 14.34 17.87 14.03C18.35 13.75 18.77 13.45 19.22 13.3L20.35 12.84L21.33 12.43L20.32 8.39L19.08 8.69C18.68 8.79 18.2 8.91 17.65 9.05C17.08 9.15 16.48 9.44 15.81 9.7C15.15 9.99 14.38 10.19 13.67 10.67C12.95 11.12 12.12 11.5 11.39 12.11C10.69 12.74 9.83 13.28 9.21 14.08C8.52 14.82 7.84 15.61 7.31 16.5C6.7 17.35 6.29 18.28 5.85 19.21C5.45 20.13 5.13 21.07 4.87 21.99C4.38 23.83 4.16 25.57 4.07 27.07C4 28.56 4.05 29.81 4.13 30.71C4.16 31.13 4.22 31.54 4.26 31.83L4.32 32.18L4.37 32.17C4.74 33.9 5.59 35.49 6.83 36.75C8.07 38.02 9.64 38.91 11.36 39.32C13.08 39.73 14.88 39.65 16.56 39.08C18.23 38.51 19.71 37.47 20.83 36.1C21.94 34.72 22.64 33.06 22.85 31.3C23.06 29.54 22.76 27.76 22 26.16C21.23 24.57 20.04 23.22 18.54 22.27C17.04 21.33 15.31 20.83 13.54 20.83ZM36.45 20.83C35.99 20.83 35.54 20.9 35.1 20.96C35.24 20.48 35.39 19.99 35.63 19.55C35.87 18.91 36.24 18.35 36.61 17.79C36.91 17.18 37.46 16.77 37.86 16.25C38.28 15.75 38.85 15.41 39.3 14.99C39.74 14.56 40.32 14.34 40.79 14.03C41.27 13.75 41.69 13.45 42.14 13.3L43.26 12.84L44.25 12.43L43.24 8.39L42 8.69C41.6 8.79 41.11 8.91 40.56 9.05C40 9.15 39.4 9.44 38.72 9.7C38.06 9.99 37.3 10.19 36.58 10.67C35.87 11.12 35.04 11.5 34.31 12.11C33.6 12.74 32.75 13.28 32.12 14.08C31.43 14.82 30.76 15.61 30.23 16.5C29.62 17.35 29.2 18.28 28.77 19.21C28.37 20.13 28.05 21.07 27.79 21.99C27.3 23.83 27.08 25.57 26.99 27.07C26.92 28.56 26.96 29.81 27.05 30.71C27.08 31.13 27.14 31.54 27.18 31.83L27.23 32.18L27.29 32.17C27.66 33.9 28.51 35.49 29.75 36.75C30.98 38.02 32.55 38.91 34.28 39.32C36 39.73 37.8 39.65 39.48 39.08C41.15 38.51 42.63 37.47 43.74 36.1C44.86 34.72 45.56 33.06 45.76 31.3C45.97 29.54 45.68 27.76 44.91 26.16C44.15 24.57 42.95 23.22 41.45 22.27C39.96 21.33 38.22 20.83 36.45 20.83Z"
              fill="#7572D5" fill-opacity="1.000000" fill-rule="nonzero"/>

    </g>

</svg>
